# xmcd
#
# Track frame offsets: 
#        150
#        24541
#        46271
#        63599
#        86337
#        109321
#        128723
#        150026
#        175142
#        198006
#        220671
#        238575
#        265230
#
# Disc length: 3763 seconds
#
# Revision: 1
# Processed by: cddbd v1.5.2PL0 Copyright (c) Steve Scherf et al.
# Submitted via: ExactAudioCopyFreeDBPlugin 1.0
#
DISCID=a00eb10d
DTITLE=钟明秋 - DTS51为你钟情
DYEAR=2010
DGENRE=DTS
TTITLE0=莲心
TTITLE1=屋檐下的思念
TTITLE2=你那好冷的小手
TTITLE3=传奇[余音绕梁版]
TTITLE4=烟花易冷
TTITLE5=水中花
TTITLE6=爱琴海
TTITLE7=天之大
TTITLE8=为你等待
TTITLE9=梦里水乡
TTITLE10=天涯歌女
TTITLE11=涛声依旧
TTITLE12=一水隔天涯
EXTD=
EXTT0=
EXTT1=
EXTT2=
EXTT3=
EXTT4=
EXTT5=
EXTT6=
EXTT7=
EXTT8=
EXTT9=
EXTT10=
EXTT11=
EXTT12=
PLAYORDER=
